<?xml version="1.0" encoding="UTF-8" standalone="no"?>
<svg
   version="1.0"
   width="349.66669"
   height="286.33331"
   viewBox="0 0 262.25001 214.75"
   preserveAspectRatio="xMidYMid meet"
   id="svg35"
   sodipodi:docname="2.svg"
   inkscape:version="1.1 (c68e22c387, 2021-05-23)"
   xmlns:inkscape="http://www.inkscape.org/namespaces/inkscape"
   xmlns:sodipodi="http://sodipodi.sourceforge.net/DTD/sodipodi-0.dtd"
   xmlns="http://www.w3.org/2000/svg"
   xmlns:svg="http://www.w3.org/2000/svg">
  <defs
     id="defs39" />
  <sodipodi:namedview
     id="namedview37"
     pagecolor="#ffffff"
     bordercolor="#666666"
     borderopacity="1.0"
     inkscape:pageshadow="2"
     inkscape:pageopacity="0.0"
     inkscape:pagecheckerboard="0"
     inkscape:document-units="px"
     showgrid="false"
     units="px"
     inkscape:showpageshadow="false"
     inkscape:zoom="1.5861561"
     inkscape:cx="256.27995"
     inkscape:cy="134.60214"
     inkscape:window-width="1366"
     inkscape:window-height="705"
     inkscape:window-x="-8"
     inkscape:window-y="-8"
     inkscape:window-maximized="1"
     inkscape:current-layer="svg35" />
  <metadata
     id="metadata9">
Created by potrace 1.16, written by Peter Selinger 2001-2019
</metadata>
  <g
     transform="matrix(0.05633051,0,0,-0.05695619,-9.5390237,223.65917)"
     fill="#000000"
     stroke="none"
     id="g33"
     style="fill:#000080;stroke-width:1.76546">
    <path
       d="M 2392,3829 C 2195,3645 1964,3491 1488,3224 1075,2993 903,2872 716,2686 479,2449 346,2196 276,1849 231,1629 211,1388 191,815 c -8,-216 -7,-242 8,-259 15,-18 32,-18 416,-12 576,10 816,-10 1160,-93 178,-44 413,-135 637,-247 37,-19 81,-34 97,-34 16,0 87,27 157,61 359,169 515,219 882,281 116,19 173,22 677,25 406,3 553,7 563,16 13,10 14,49 8,252 -15,514 -39,821 -82,1033 -83,414 -257,704 -584,978 -155,129 -312,231 -650,419 -446,248 -672,401 -901,607 -42,37 -81,68 -87,68 -7,0 -51,-37 -100,-81 z m 176,-80 c 37,-34 122,-102 189,-153 187,-140 336,-232 813,-500 412,-232 674,-448 838,-691 165,-246 244,-518 282,-975 12,-147 39,-801 34,-812 -2,-3 -185,-4 -406,-1 -445,6 -620,-2 -856,-42 -312,-53 -557,-136 -879,-298 l -70,-36 -148,70 c -335,159 -544,224 -900,280 -128,20 -184,23 -673,26 l -533,5 6,126 c 3,70 10,233 15,362 18,404 39,599 91,810 122,492 402,811 1024,1162 399,226 465,264 583,339 145,92 358,251 447,333 33,30 64,55 68,56 5,0 39,-28 75,-61 z"
       id="path11"
       style="fill:#000080;stroke-width:1.76546" />
    <path
       d="m 2272,3183 c 3,-67 3,-68 -22,-68 -22,0 -26,6 -34,48 -6,36 -12,47 -25,45 -13,-3 -15,-14 -13,-59 3,-41 0,-59 -12,-68 -19,-16 -21,-41 -4,-41 6,0 19,7 28,15 12,11 52,15 185,16 94,0 193,-2 221,-6 l 52,-7 17,51 c 9,28 14,55 10,61 -12,20 -27,9 -42,-30 -20,-50 -38,-53 -29,-5 6,30 4,35 -13,35 -12,0 -23,-11 -30,-31 -13,-37 -37,-34 -33,4 3,21 -1,27 -16,27 -14,0 -21,-9 -25,-30 l -6,-30 h -80 -80 l -5,33 c -3,17 -7,48 -8,67 -2,25 -8,36 -21,38 -17,4 -19,-3 -15,-65 z"
       id="path13"
       style="fill:#000080;stroke-width:1.76546" />
    <path
       d="m 2878,3123 c -3,-44 -5,-48 -28,-47 -14,0 -39,4 -57,8 -30,7 -32,5 -53,-41 -23,-52 -23,-88 0,-88 13,0 38,37 54,80 2,6 17,3 36,-7 39,-22 89,-23 96,-3 8,20 20,19 54,-5 18,-13 30,-33 34,-55 5,-27 14,-39 34,-46 25,-10 30,-7 70,36 23,26 42,53 42,61 0,25 -27,15 -59,-21 -35,-40 -51,-44 -51,-13 0,12 -14,37 -32,55 -26,27 -29,35 -19,47 11,14 17,12 47,-11 26,-20 38,-23 46,-15 9,9 5,19 -17,42 -40,41 -62,46 -96,21 -40,-30 -57,-27 -61,11 -2,21 -9,34 -20,36 -14,3 -17,-6 -20,-45 z"
       id="path15"
       style="fill:#000080;stroke-width:1.76546" />
    <path
       d="m 2011,3129 c -17,-7 -22,-15 -18,-31 4,-13 0,-26 -10,-33 -10,-7 -14,-19 -10,-29 6,-15 10,-15 43,-1 21,8 39,13 42,10 3,-3 3,-7 1,-8 -2,-2 -30,-23 -61,-47 -57,-41 -59,-42 -83,-26 -26,17 -45,14 -45,-7 0,-7 16,-23 35,-36 l 34,-23 86,63 c 93,69 109,100 59,119 -14,6 -22,15 -19,20 7,11 -12,41 -24,39 -3,0 -17,-5 -30,-10 z"
       id="path17"
       style="fill:#000080;stroke-width:1.76546" />
    <path
       d="m 2503,2918 c -21,-26 -483,-807 -483,-816 0,-10 471,-845 490,-867 7,-8 18,-15 25,-15 16,0 500,866 498,890 -2,28 -488,815 -504,818 -9,2 -20,-3 -26,-10 z"
       id="path19"
       style="fill:#000080;stroke-width:1.76546" />
    <path
       d="m 733,2123 c -7,-2 -13,-11 -13,-19 0,-13 659,-848 688,-871 12,-10 131,-13 518,-13 276,0 509,3 518,6 9,3 16,13 16,21 0,17 -526,864 -544,875 -12,8 -1163,9 -1183,1 z"
       id="path21"
       style="fill:#000080;stroke-width:1.76546" />
    <path
       d="m 3138,2113 c -15,-19 -505,-800 -527,-841 -28,-52 -32,-52 518,-52 390,0 511,3 524,13 9,6 167,201 352,432 227,285 335,426 333,440 -3,20 -12,20 -594,23 -553,2 -592,1 -606,-15 z"
       id="path23"
       style="fill:#000080;stroke-width:1.76546" />
    <path
       d="M 1550,935 V 730 h 160 160 v 25 25 h -130 -130 v 180 180 h -30 -30 z"
       id="path25"
       style="fill:#000080;stroke-width:1.76546" />
    <path
       d="m 1950,993 c 0,-121 3,-154 18,-182 30,-59 62,-76 159,-80 103,-4 149,8 188,49 l 30,31 3,165 3,164 h -30 -30 l -3,-155 c -3,-153 -3,-155 -30,-181 -51,-51 -189,-42 -226,14 -14,21 -18,56 -21,174 l -3,148 h -29 -29 z"
       id="path27"
       style="fill:#000080;stroke-width:1.76546" />
    <path
       d="M 2490,936 V 730 h 30 30 v 172 c 0,94 3,168 8,164 4,-4 39,-80 77,-169 67,-155 71,-162 100,-165 30,-3 30,-2 105,170 l 75,173 3,-172 2,-173 h 30 30 v 205 205 h -43 -43 l -49,-112 c -27,-62 -62,-142 -77,-178 l -29,-65 -74,175 -74,175 -50,3 -51,3 z"
       id="path29"
       style="fill:#000080;stroke-width:1.76546" />
    <path
       d="m 3183,1121 c -47,-22 -63,-45 -63,-94 0,-57 44,-83 190,-111 108,-22 132,-37 128,-79 -5,-48 -52,-70 -141,-64 -73,5 -113,25 -132,65 -13,30 -65,31 -65,2 0,-30 57,-88 98,-100 48,-13 183,-13 219,1 99,37 114,143 26,193 -6,3 -62,18 -124,31 -122,27 -139,36 -139,71 0,75 198,86 235,14 15,-30 56,-42 70,-21 10,17 -18,61 -54,83 -51,32 -189,37 -248,9 z"
       id="path31"
       style="fill:#000080;stroke-width:1.76546" />
  </g>
</svg>
