<svg xmlns="http://www.w3.org/2000/svg" version="1.1" xmlns:xlink="http://www.w3.org/1999/xlink" xmlns:svgjs="http://svgjs.dev/svgjs" width="1500" height="1500" viewBox="0 0 1500 1500"><g transform="matrix(1,0,0,1,-0.323615160350073,-0.3236151603499593)"><svg viewBox="0 0 343 343" data-background-color="#ffffff" preserveAspectRatio="xMidYMid meet" height="1500" width="1500" xmlns="http://www.w3.org/2000/svg" xmlns:xlink="http://www.w3.org/1999/xlink"><g id="tight-bounds" transform="matrix(1,0,0,1,0.0740000000000407,0.07400000000001228)"><svg viewBox="0 0 342.85155851775386 342.85155851775386" height="342.85155851775386" width="342.85155851775386"><g><svg></svg></g><g><svg viewBox="0 0 342.85155851775386 342.85155851775386" height="342.85155851775386" width="342.85155851775386"><g><path d="M0 171.426c0-94.676 76.75-171.426 171.426-171.426 94.676 0 171.426 76.75 171.426 171.426 0 94.676-76.75 171.426-171.426 171.426-94.676 0-171.426-76.75-171.426-171.426zM171.426 337.54c91.742 0 166.114-74.372 166.114-166.114 0-91.742-74.372-166.114-166.114-166.114-91.742 0-166.114 74.372-166.114 166.114 0 91.742 74.372 166.114 166.114 166.114z" data-fill-palette-color="tertiary" fill="#085f63" stroke="transparent"></path><ellipse rx="164.56874808852186" ry="164.56874808852186" cx="171.42577925887693" cy="171.42577925887693" fill="#085f63" stroke="transparent" stroke-width="0" fill-opacity="1" data-fill-palette-color="tertiary"></ellipse></g><g transform="matrix(1,0,0,1,64.84655864529837,94.32041306904443)"><svg viewBox="0 0 213.1584412271571 154.210732379665" height="154.210732379665" width="213.1584412271571"><g><svg viewBox="0 0 213.1584412271571 154.210732379665" height="154.210732379665" width="213.1584412271571"><g><svg viewBox="0 0 213.1584412271571 154.210732379665" height="154.210732379665" width="213.1584412271571"><g transform="matrix(1,0,0,1,0,95.30841923838682)"><svg viewBox="0 0 213.1584412271571 58.902313141278164" height="58.902313141278164" width="213.1584412271571"><g id="textblocktransform"><svg viewBox="0 0 213.1584412271571 58.902313141278164" height="58.902313141278164" width="213.1584412271571" id="textblock"><g><svg viewBox="0 0 213.1584412271571 58.902313141278164" height="58.902313141278164" width="213.1584412271571"><g transform="matrix(1,0,0,1,0,0)"><svg width="213.1584412271571" viewBox="1.5 -35.05 128.64 35.55" height="58.902313141278164" data-palette-color="#ffffff"><path d="M18.85-11.4L18.85-34Q18.85-35 24.28-35 29.7-35 29.7-34L29.7-34 29.7-11.05Q29.7-5.95 26.05-2.73 22.4 0.5 15.98 0.5 9.55 0.5 5.53-2.83 1.5-6.15 1.5-11.8L1.5-11.8 1.5-33.95Q1.5-34.95 6.93-34.95 12.35-34.95 12.35-33.95L12.35-33.95 12.35-11.4Q12.35-10.4 13.4-9.8L13.4-9.8Q14.5-9.2 15.7-9.2 16.9-9.2 17.88-9.75 18.85-10.3 18.85-11.4L18.85-11.4ZM68.9 0.05L68.9 0.05Q64.45 0.05 64.45-0.95L64.45-0.95 63.4-21 57.3-0.7Q57.1-0.1 53.9-0.1 50.7-0.1 50.6-0.65L50.6-0.65 44.3-21.2 43.6-1.25Q43.55-0.5 41.7-0.23 39.85 0.05 38.62 0.05 37.4 0.05 36.25-0.1L36.25-0.1Q33.85-0.45 33.9-1.35L33.9-1.35 35.05-33.85Q35.05-35.05 41.15-35.05L41.15-35.05Q42.95-35.05 45.55-34.77 48.15-34.5 48.45-33.7L48.45-33.7 54.05-17.95 58.95-33.75Q59.4-35.05 65.85-35.05L65.85-35.05Q67.7-35.05 70.27-34.77 72.85-34.5 72.85-33.8L72.85-33.8 74.3-1Q74.3-0.45 72.35-0.2 70.4 0.05 68.9 0.05ZM89.05-21.1L95.5-21.1Q96.45-21.1 96.45-17.6L96.45-17.6Q96.45-16.55 96.22-15.13 96-13.7 95.4-13.7L95.4-13.7 89.05-13.7 89.05-8.7 98.25-8.7Q99.09-8.7 99.4-6.5L99.4-6.5Q99.55-5.55 99.55-4.48 99.55-3.4 99.25-1.7 98.95 0 98.25 0L98.25 0 81.15 0Q79.25 0 79.25-1.55L79.25-1.55 79.25-33.7Q79.25-35 80.4-35L80.4-35 98.3-35Q99.34-35 99.34-30.58 99.34-26.15 98.3-26.15L98.3-26.15 89.05-26.15 89.05-21.1ZM113.44-12.05L113.44-0.7Q113.44 0.1 108.69 0.1L108.69 0.1Q103.89 0.1 103.89-0.65L103.89-0.65 103.89-33.25Q103.89-35 105.74-35L105.74-35 115.29-35Q128.44-35 128.44-24.75L128.44-24.75Q128.44-21.65 127.24-19.13 126.04-16.6 123.84-15.1L123.84-15.1 130.14-4.6Q129.74-3.4 127.54-1.85L127.54-1.85Q124.54 0.3 122.59 0.3 120.64 0.3 119.69-1.1L119.69-1.1 114.99-12.05 113.44-12.05ZM114.49-26.15L113.44-26.15 113.44-18.65 113.69-18.65Q118.44-18.65 118.44-22.6L118.44-22.6Q118.44-24.4 117.52-25.28 116.59-26.15 114.49-26.15L114.49-26.15Z" opacity="1" transform="matrix(1,0,0,1,0,0)" fill="#ffffff" class="wordmark-text-0" data-fill-palette-color="quaternary" id="text-0"></path></svg></g></svg></g></svg></g></svg></g><g transform="matrix(1,0,0,1,65.63905106548725,0)"><svg viewBox="0 0 81.88033909618262 81.40299676124643" height="81.40299676124643" width="81.88033909618262"><g><svg xmlns="http://www.w3.org/2000/svg" viewBox="20 20.173631984616488 60.018743579525974 59.668848995350714" x="0" y="0" height="81.40299676124643" width="81.88033909618262" class="icon-icon-0" data-fill-palette-color="quaternary" id="icon-0"><g data-name="Calque 2" fill="#ffffff" data-fill-palette-color="quaternary"><path d="M23.82 23.07A1.82 1.82 0 1 1 22 24.88 1.82 1.82 0 0 1 23.82 23.07Zm0 5.58a3.73 3.73 0 0 0 2-0.56c2.07 1.44 9.08 6.45 10.21 7.14a6.25 6.25 0 0 0 3.19 1.25c0.63 0 2 0.06 4.13 0.06A2.75 2.75 0 0 0 45.8 38a2.76 2.76 0 1 0-2.69-3.32c-1.94 0-3.26 0-3.82-0.06A3.81 3.81 0 0 1 37 33.71c-1-0.63-7.64-5.39-9.9-7A4 4 0 0 0 27.57 25a3.7 3.7 0 0 0-3.7-3.7 3.74 3.74 0 0 0-3.7 3.7A3.6 3.6 0 0 0 23.82 28.64Z" fill="#ffffff" data-fill-palette-color="quaternary"></path><path d="M22.13 44.61a1.82 1.82 0 1 1 1.82 1.82A1.78 1.78 0 0 1 22.13 44.61Zm5.39 0.94H33a2.71 2.71 0 0 0 2.57 1.82 2.76 2.76 0 0 0 0-5.51A2.71 2.71 0 0 0 33 43.67H27.52a3.76 3.76 0 0 0-3.57-2.76 3.7 3.7 0 0 0-3.7 3.7 3.74 3.74 0 0 0 3.7 3.7A3.52 3.52 0 0 0 27.52 45.55Z" fill="#ffffff" data-fill-palette-color="quaternary"></path><path d="M28.33 49.87a1.82 1.82 0 1 1-1.82 1.82A1.82 1.82 0 0 1 28.33 49.87Zm0 5.58a3.7 3.7 0 0 0 3.57-2.76H33a2.72 2.72 0 0 0 2.57 1.82 2.76 2.76 0 0 0 0-5.51A2.71 2.71 0 0 0 33 50.81H31.9a3.76 3.76 0 0 0-3.57-2.76 3.7 3.7 0 0 0 0 7.39Z" fill="#ffffff" data-fill-palette-color="quaternary"></path><path d="M23.7 75.24a1.82 1.82 0 1 1 1.82-1.82A1.78 1.78 0 0 1 23.7 75.24Zm1.06-5.39V63.4c0-2.94 1-3.57 2.69-3.57 2.07 0 4.38 0 5.39 0.06a2.73 2.73 0 0 0 2.63 1.82 2.76 2.76 0 1 0 0-5.51A2.71 2.71 0 0 0 32.9 58c-1.06 0-3.38-0.06-5.39-0.06-4.64 0-4.64 4.07-4.64 5.45v6.39A3.76 3.76 0 0 0 20 73.42a3.7 3.7 0 0 0 3.7 3.7 3.74 3.74 0 0 0 3.7-3.7A3.58 3.58 0 0 0 24.76 69.86Z" fill="#ffffff" data-fill-palette-color="quaternary"></path><path d="M75.06 75.24a1.82 1.82 0 1 1 1.82-1.82A1.82 1.82 0 0 1 75.06 75.24Zm0.81-5.45V63.4c0-1.31 0-5.45-4.57-5.45-2.07 0-4.38 0-5.39 0.06a2.71 2.71 0 0 0-2.57-1.82 2.76 2.76 0 1 0 0 5.51A2.85 2.85 0 0 0 66 59.9c1.06 0 3.38-0.06 5.39-0.06C73 59.83 74 60.4 74 63.4v6.45a3.7 3.7 0 0 0 1 7.26 3.71 3.71 0 0 0 0.82-7.33Z" fill="#ffffff" data-fill-palette-color="quaternary"></path><path d="M72.42 23.69A1.57 1.57 0 1 1 74 25.26 1.59 1.59 0 0 1 72.42 23.69ZM63.59 47.37A2.76 2.76 0 0 0 66 45.86h4.57c4.26 0 4.26-3.76 4.26-5V27a3.46 3.46 0 1 0-4.26-3.38A3.44 3.44 0 0 0 73.05 27v13.9c0 2.63-0.82 3.13-2.38 3.13H66.35a2.75 2.75 0 0 0-5.45 0.56A2.63 2.63 0 0 0 63.59 47.37Z" fill="#ffffff" data-fill-palette-color="quaternary"></path><path d="M76.37 50.13a1.82 1.82 0 1 1-1.82 1.82A1.78 1.78 0 0 1 76.37 50.13Zm-13 4.57A2.71 2.71 0 0 0 66 52.88h6.77a3.76 3.76 0 0 0 3.57 2.76A3.7 3.7 0 1 0 72.74 51H66a2.71 2.71 0 0 0-2.57-1.82 2.78 2.78 0 0 0-2.76 2.76A2.73 2.73 0 0 0 63.4 54.7Z" fill="#ffffff" data-fill-palette-color="quaternary"></path><rect x="40.48" y="39.98" width="18.04" height="23.93" rx="3.95" ry="3.95" fill="#ffffff" data-fill-palette-color="quaternary"></rect><path d="M40.48 24.45a1.82 1.82 0 1 1-1.82 1.82A1.86 1.86 0 0 1 40.48 24.45Zm0 5.58A3.7 3.7 0 0 0 44 27.33h6.26c0.69 0 1.31 0 1.57 0.25s0.31 0.44 0.31 1.25c0 1.13 0 2.63-0.06 3.82a2.76 2.76 0 1 0 3.76 2.57 2.76 2.76 0 0 0-1.94-2.63c0-1.19 0.06-2.63 0.06-3.76a3.32 3.32 0 0 0-0.82-2.57 3.69 3.69 0 0 0-2.88-0.75h-6.2A3.71 3.71 0 1 0 40.48 30Z" fill="#ffffff" data-fill-palette-color="quaternary"></path><path d="M35 76.18a1.82 1.82 0 1 1-1.82-1.82A1.78 1.78 0 0 1 35 76.18ZM45.8 66A2.71 2.71 0 0 0 43.3 67.6h-7c-1.31 0-4.07 0-4.07 3.7v1.25a3.68 3.68 0 0 0 0.88 7.27 3.74 3.74 0 0 0 3.7-3.7 3.7 3.7 0 0 0-2.69-3.57c0-0.37-0.06-0.82-0.06-1.25 0-1.69 0.56-1.82 2.19-1.82h6.83a2.69 2.69 0 0 0 2.63 2 2.78 2.78 0 0 0 2.76-2.76A2.69 2.69 0 0 0 45.8 66Z" fill="#ffffff" data-fill-palette-color="quaternary"></path><path d="M62.71 78a1.82 1.82 0 0 1-1.82-1.82 1.87 1.87 0 0 1 1.82-1.88 1.82 1.82 0 0 1 1.82 1.82A1.87 1.87 0 0 1 62.71 78Zm0.88-5.45V71.29c0-3.7-2.76-3.7-4.07-3.7H55.7A2.67 2.67 0 0 0 53.2 66a2.76 2.76 0 1 0 2.63 3.51h3.7c1.63 0 2.19 0.12 2.19 1.82a8.09 8.09 0 0 1-0.06 1.25 3.7 3.7 0 1 0 4.7 3.57A3.57 3.57 0 0 0 63.59 72.55Z" fill="#ffffff" data-fill-palette-color="quaternary"></path></g></svg></g></svg></g><g></g></svg></g></svg></g></svg></g></svg></g><defs></defs></svg><rect width="342.85155851775386" height="342.85155851775386" fill="none" stroke="none" visibility="hidden"></rect></g></svg></g></svg>